<svg width="152" height="151" viewBox="0 0 152 151" fill="none" xmlns="http://www.w3.org/2000/svg">
<path d="M143.711 61.1685C144.191 63.6301 142.957 66.2691 138.358 67.1664C134.536 67.912 132.029 66.2045 131.475 63.7123C130.715 60.2743 133.223 59.1126 133.223 59.1126L132.558 57.3146C132.558 57.3146 128.88 58.7943 129.874 63.8903C130.636 67.7986 133.813 70.1823 138.741 69.2435C143.923 68.2325 146.169 64.9252 145.365 60.8009C144.362 55.6618 140.587 55.6138 140.587 55.6138L140.444 57.5245C140.444 57.5245 142.99 57.4761 143.711 61.1685Z" fill="#1D2947"/>
<path d="M129.932 51.1853C131.466 54.6204 134.315 55.0108 137.509 53.5846C140.06 52.4454 142.126 50.0047 140.559 46.4402C138.89 42.7037 135.553 42.8927 133.082 43.996C130.089 45.3326 128.452 47.8708 129.932 51.1853ZM139.153 47.0681C139.951 48.8559 139.275 50.5793 136.362 51.88C134.012 52.9295 132.043 52.2427 131.325 50.6356C130.589 48.9884 131.095 47.1 133.687 45.9428C136.519 44.6781 138.363 45.3003 139.153 47.0681Z" fill="#1D2947"/>
<path d="M123.52 34.4485C121.695 36.24 122.076 38.2212 123.06 39.5729C124.73 41.8672 126.629 41.41 126.629 41.41L125.331 42.3553L126.431 43.8671L135.431 37.3148L134.278 35.7319L129.121 39.4872C127.565 40.5652 126.098 40.6808 124.863 39.3212C123.169 37.4798 124.74 35.9003 125.896 35.0586C125.896 35.0586 126.346 34.7042 127.182 34.0955L127.484 33.8754C127.555 33.8236 127.786 33.6553 127.786 33.6553L131.041 31.2856L129.832 29.6623L125.617 32.7312C125.617 32.7312 124.06 33.9193 123.52 34.4485Z" fill="#1D2947"/>
<path d="M120.833 27.4587L118.539 29.8917L117.47 31.1214L116.491 30.1074L115.547 29.2169L114.505 30.3214L115.45 31.2119L116.488 32.1307L115.521 33.0929L113.543 35.1586L115.463 35.9115L117.004 34.31L117.817 33.3834L119.035 34.5927L120.077 33.4883L118.783 32.359L119.947 31.1888L122.845 28.1156C122.875 28.0836 122.89 28.0675 122.905 28.0515C124.822 26.0187 125.803 24.4647 121.87 21.9656L121.044 23.5151C121.044 23.5151 121.642 23.7154 122.186 24.2286C123.242 25.2247 122.479 25.714 120.833 27.4587Z" fill="#1D2947"/>
<path d="M108.476 15.1017L106.077 18.9209C105.425 20.0185 104.465 21.3107 105.131 23.1238C105.664 24.6158 108.029 25.8989 108.877 26.2076C109.534 26.4464 110.188 26.5265 110.858 26.46C111.596 26.4105 112.237 26.0637 112.772 25.5967L111.51 24.2639C109.894 25.7627 106.934 23.6539 106.68 22.3401C106.448 21.2762 107.115 20.6849 107.115 20.6849C107.504 20.2814 108.487 20.6244 109.915 21.3319C110.555 21.6381 111.213 21.9562 111.749 22.2215C115.68 24.0388 118.871 19.1073 114.391 16.2316C113.632 15.7443 112.882 15.4462 112.24 15.3475C111.928 15.3041 111.646 15.2541 111.384 15.2952C110.69 15.3988 110.153 15.7072 110.153 15.7072L110.902 14.2539L109.113 13.1317L108.476 15.1017ZM108.772 18.0624C109.259 17.3033 109.888 16.9751 110.557 16.8292C111.511 16.6051 112.559 16.8859 113.374 17.4087C113.948 17.7771 114.425 18.2143 114.631 18.7905C114.976 19.7182 114.415 20.7959 113.551 20.9208C112.079 21.1783 109.749 19.1866 108.094 19.1178L108.772 18.0624Z" fill="#1D2947"/>
<path d="M99.9268 10.8698C101.569 11.5017 102.435 13.2961 101.421 15.9939C100.587 18.1009 99.1412 19.407 97.0768 18.7072C94.9714 17.9915 95.1484 15.9382 95.1484 15.9382L93.1962 15.6821C93.1962 15.6821 92.7537 18.6705 96.5318 20.1239C99.427 21.2377 102.024 19.8795 103.232 16.7379C104.67 13.0009 103.237 10.352 100.589 9.33301C96.749 7.85592 95.0177 10.3957 95.0177 10.3957L96.654 11.473C96.654 11.473 97.8245 10.0847 99.9268 10.8698Z" fill="#1D2947"/>
<path d="M87.2813 10.8538L86.6767 14.1427L86.4472 15.7558L85.0744 15.4363L83.7978 15.2016L83.5233 16.6946L84.7999 16.9293L86.171 17.1366L85.8811 18.4702L85.3424 21.279L87.364 20.8678L87.7874 18.6864L87.9669 17.4668L89.6467 17.8203L89.9212 16.3273L88.2215 16.082L88.5631 14.4671L89.3269 10.3127C89.3348 10.2695 89.3388 10.2478 89.3428 10.2262C89.848 7.47824 89.828 5.64033 85.1683 5.67844L85.3164 7.42805C85.3164 7.42805 85.9267 7.27183 86.6623 7.40707C88.0904 7.66961 87.7149 8.49533 87.2813 10.8538Z" fill="#1D2947"/>
<path d="M60.5718 8.32691C63.0293 7.82617 65.6785 9.03762 66.6141 13.6293C67.3916 17.4449 65.7051 19.9664 63.2177 20.5406C59.7861 21.3296 58.6035 18.8314 58.6035 18.8314L56.8111 19.511C56.8111 19.511 58.3215 23.1772 63.409 22.1406C67.3108 21.3455 69.6679 18.1485 68.688 13.2291C67.6338 8.05545 64.3079 5.83684 60.1905 6.67581C55.0599 7.72123 55.0433 11.4965 55.0433 11.4965L56.9552 11.6234C56.9552 11.6234 56.8856 9.07804 60.5718 8.32691Z" fill="#1D2947"/>
<path d="M50.7037 22.1875C54.1258 20.625 54.4925 17.7731 53.0396 14.5911C51.8792 12.0495 49.4214 10.0035 45.87 11.6008C42.1476 13.3004 42.3645 16.6356 43.4883 19.0971C44.8498 22.079 47.4016 23.6952 50.7037 22.1875ZM46.5096 13.0017C48.2907 12.1885 50.0197 12.8501 51.3447 15.752C52.4137 18.0935 51.7434 20.0683 50.1424 20.7993C48.5013 21.5485 46.6088 21.0583 45.43 18.4766C44.1417 15.6549 44.7485 13.8058 46.5096 13.0017Z" fill="#1D2947"/>
<path d="M34.0214 28.7399C35.828 30.5501 37.806 30.1524 39.1494 29.157C41.4297 27.4675 40.9568 25.5727 40.9568 25.5727L41.9128 26.8631L43.4154 25.7498L36.7882 16.8054L35.215 17.9711L39.0132 23.0973C40.1042 24.6437 40.232 26.1097 38.8827 27.3558C37.0555 29.0656 35.463 27.5075 34.6117 26.3585C34.6117 26.3585 34.2535 25.912 33.6379 25.0812L33.4152 24.7807C33.3629 24.71 33.1926 24.4802 33.1926 24.4802L30.7958 21.2453L29.1827 22.468L32.2867 26.6573C32.2867 26.6573 33.4877 28.2044 34.0214 28.7399Z" fill="#1D2947"/>
<path d="M27.0537 31.4837L29.5057 33.7575L30.7443 34.8161L29.7385 35.8036L28.856 36.7554L29.969 37.7875L30.8516 36.8358L31.7618 35.7896L32.732 36.7493L34.8142 38.7101L35.551 36.7831L33.9367 35.2561L33.0034 34.4506L34.2024 33.2223L33.0893 32.1901L31.9709 33.4933L30.791 32.3391L27.6937 29.467C27.6615 29.437 27.6453 29.4221 27.6292 29.4071C25.5805 27.5073 24.0183 26.5388 21.5521 30.4925L23.1084 31.3056C23.1084 31.3056 23.3038 30.7067 23.8124 30.1582C24.7997 29.0935 25.2953 29.8532 27.0537 31.4837Z" fill="#1D2947"/>
<path d="M14.8003 43.9436L18.6395 46.3107C19.7425 46.9538 21.0426 47.903 22.8501 47.2217C24.3375 46.6768 25.6009 44.3004 25.9025 43.4504C26.1358 42.7913 26.2105 42.1362 26.1383 41.4667C26.0827 40.7296 25.7306 40.0916 25.2592 39.5605L23.9369 40.8336C25.4492 42.4366 23.3651 45.4139 22.0535 45.6796C20.9916 45.9206 20.3947 45.2584 20.3947 45.2584C19.988 44.8722 20.3227 43.887 21.0183 42.453C21.3191 41.8105 21.6317 41.1493 21.8925 40.6116C23.677 36.6654 18.7191 33.5153 15.8808 38.0196C15.3999 38.7828 15.108 39.5349 15.0147 40.1782C14.9739 40.4906 14.9262 40.7726 14.9696 41.0339C15.079 41.7269 15.3918 42.2621 15.3918 42.2621L13.9324 41.5245L12.8251 43.3231L14.8003 43.9436ZM17.7585 43.6234C16.9954 43.1425 16.6618 42.5163 16.5104 41.8488C16.2783 40.8965 16.5504 39.8457 17.0664 39.0268C17.43 38.4497 17.8632 37.9686 18.4376 37.7585C19.3624 37.4051 20.4448 37.9571 20.5769 38.8204C20.8466 40.2906 18.8745 42.6363 18.8194 44.2919L17.7585 43.6234Z" fill="#1D2947"/>
<path d="M10.6397 52.5287C11.2579 50.8809 13.045 50.0005 15.7511 50.9922C17.865 51.8087 19.1832 53.2431 18.5005 55.3132C17.8025 57.4245 15.7477 57.2646 15.7477 57.2646L15.508 59.219C15.508 59.219 18.5 59.6365 19.9218 55.8464C21.0114 52.942 19.6316 50.3567 16.48 49.1744C12.7311 47.768 10.0942 49.2225 9.09742 51.8797C7.65242 55.7316 10.2065 57.4416 10.2065 57.4416L11.2702 55.7964C11.2702 55.7964 9.87212 54.6375 10.6397 52.5287Z" fill="#1D2947"/>
<path d="M10.7295 65.1735L14.0233 65.7507L15.6382 65.9667L15.3302 67.3422L15.1062 68.6207L16.6014 68.8827L16.8254 67.6042L17.0213 66.2314L18.3572 66.5101L21.1705 67.0254L20.7424 65.0073L18.5576 64.6021L17.3365 64.4328L17.676 62.7501L16.1808 62.4881L15.9496 64.1898L14.3319 63.8616L10.1713 63.1326C10.128 63.125 10.1063 63.1212 10.0847 63.1174C7.33259 62.6351 5.49491 62.6705 5.5719 67.3297L7.32022 67.167C7.32022 67.167 7.1589 66.558 7.28801 65.8213C7.53862 64.3911 8.36744 64.7596 10.7295 65.1735Z" fill="#1D2947"/>
<path d="M8.42524 91.9033C7.904 89.4501 9.0933 86.7908 13.677 85.8169C17.486 85.0076 20.0214 86.6731 20.6164 89.1556C21.434 92.5805 18.9458 93.7839 18.9458 93.7839L19.6403 95.5706C19.6403 95.5706 23.2938 94.0296 22.2147 88.951C21.3872 85.0559 18.1706 82.7255 13.2596 83.7465C8.09485 84.8438 5.90407 88.1882 6.77737 92.2984C7.86557 97.4201 11.6409 97.4051 11.6409 97.4051L11.7518 95.4923C11.7518 95.4923 9.20709 95.5832 8.42524 91.9033Z" fill="#1D2947"/>
<path d="M22.368 101.656C20.7771 98.2467 17.9222 97.9039 14.7524 99.3833C12.2206 100.565 10.1951 103.04 11.822 106.578C13.5526 110.286 16.8859 110.041 19.338 108.897C22.3084 107.51 23.9032 104.945 22.368 101.656ZM13.2175 105.926C12.3895 104.152 13.0367 102.418 15.9274 101.068C18.2598 99.9799 20.2402 100.634 20.9845 102.229C21.7474 103.863 21.273 105.76 18.7013 106.96C15.8904 108.272 14.0363 107.681 13.2175 105.926Z" fill="#1D2947"/>
<path d="M29.0593 117.283C30.8543 115.461 30.4401 113.487 29.4336 112.152C27.7251 109.886 25.8343 110.374 25.8343 110.374L27.1167 109.407L25.9909 107.914L17.1021 114.616L18.2809 116.179L23.3752 112.338C24.9125 111.235 26.3773 111.095 27.6347 112.433C29.3596 114.246 27.8149 115.852 26.673 116.713C26.673 116.713 26.2295 117.075 25.4039 117.697L25.1053 117.922C25.035 117.975 24.8066 118.147 24.8066 118.147L21.5919 120.571L22.8279 122.174L26.9913 119.035C26.9913 119.035 28.5282 117.821 29.0593 117.283Z" fill="#1D2947"/>
<path d="M31.8611 124.227L34.1144 121.756L35.1626 120.508L36.1585 121.506L37.1176 122.381L38.1404 121.259L37.1813 120.384L36.1276 119.483L37.0791 118.505L39.0225 116.406L37.0894 115.686L35.5759 117.313L34.7783 118.253L33.54 117.064L32.5171 118.185L33.8296 119.293L32.6853 120.482L29.8391 123.604C29.8094 123.636 29.7946 123.652 29.7798 123.669C27.8972 125.733 26.9417 127.303 30.9159 129.736L31.716 128.173C31.716 128.173 31.1154 127.983 30.5627 127.479C29.4898 126.501 30.2453 125.999 31.8611 124.227Z" fill="#1D2947"/>
<path d="M44.4225 136.376L46.7575 132.517C47.3913 131.409 48.3296 130.101 47.6332 128.299C47.076 126.816 44.6891 125.573 43.8366 125.278C43.1756 125.051 42.5199 124.981 41.851 125.059C41.1144 125.121 40.4794 125.478 39.9523 125.954L41.2363 127.266C42.8266 125.74 45.8213 127.799 46.0979 129.109C46.3477 130.169 45.6906 130.771 45.6906 130.771C45.3077 131.181 44.3197 130.854 42.88 130.171C42.235 129.875 41.5713 129.568 41.0314 129.312C37.0704 127.56 33.9618 132.544 38.4897 135.345C39.2568 135.82 40.0114 136.105 40.6554 136.193C40.9681 136.231 41.2505 136.277 41.5114 136.231C42.2035 136.116 42.7361 135.799 42.7361 135.799L42.0107 137.264L43.8184 138.356L44.4225 136.376ZM44.0775 133.421C43.603 134.188 42.9797 134.527 42.3134 134.684C41.3631 134.924 40.3101 134.66 39.4869 134.151C38.9068 133.792 38.4221 133.363 38.2072 132.79C37.8461 131.869 38.3891 130.782 39.2513 130.642C40.7191 130.36 43.0812 132.313 44.7372 132.354L44.0775 133.421Z" fill="#1D2947"/>
<path d="M53.0424 140.465C51.3894 139.86 50.4942 138.081 51.4632 135.366C52.2621 133.246 53.6854 131.916 55.7612 132.581C57.8782 133.261 57.7355 135.317 57.7355 135.317L59.6918 135.541C59.6918 135.541 60.0843 132.545 56.2825 131.155C53.3691 130.09 50.7953 131.491 49.6394 134.653C48.2644 138.413 49.7408 141.038 52.4062 142.012C56.27 143.425 57.9587 140.857 57.9587 140.857L56.3047 139.807C56.3047 139.807 55.1575 141.215 53.0424 140.465Z" fill="#1D2947"/>
<path d="M65.6861 140.269L66.2358 136.971L66.4383 135.354L67.8163 135.651L69.0966 135.864L69.3461 134.367L68.0658 134.153L66.6914 133.969L66.959 132.631L67.4508 129.813L65.4363 130.258L65.0494 132.446L64.8902 133.669L63.2048 133.343L62.9553 134.841L64.6588 135.058L64.3442 136.678L63.6499 140.844C63.6427 140.888 63.639 140.91 63.6354 140.931C63.1762 143.687 63.2269 145.525 67.8853 145.409L67.708 143.662C67.708 143.662 67.1004 143.828 66.3626 143.705C64.9303 143.467 65.292 142.635 65.6861 140.269Z" fill="#1D2947"/>
<path d="M92.4343 142.351C89.9855 142.892 87.3164 141.725 86.3043 137.15C85.4633 133.348 87.1075 130.798 89.585 130.183C93.0029 129.337 94.227 131.815 94.227 131.815L96.0078 131.105C96.0078 131.105 94.4364 127.465 89.367 128.586C85.479 129.446 83.1755 132.682 84.2374 137.584C85.3778 142.74 88.7403 144.903 92.8431 143.995C97.9555 142.864 97.9091 139.089 97.9091 139.089L95.9954 138.994C95.9954 138.994 96.1075 141.538 92.4343 142.351Z" fill="#1D2947"/>
<path d="M102.069 128.327C98.6738 129.946 98.3548 132.804 99.8606 135.961C101.063 138.483 103.555 140.488 107.079 138.832C110.773 137.07 110.5 133.739 109.335 131.297C107.924 128.338 105.346 126.764 102.069 128.327ZM106.416 137.442C104.649 138.284 102.909 137.652 101.536 134.772C100.428 132.449 101.065 130.463 102.654 129.706C104.282 128.929 106.183 129.388 107.404 131.949C108.74 134.749 108.164 136.608 106.416 137.442Z" fill="#1D2947"/>
<path d="M118.641 121.497C116.804 119.717 114.833 120.148 113.506 121.166C111.255 122.893 111.759 124.78 111.759 124.78L110.782 123.505L109.298 124.644L116.073 133.476L117.627 132.284L113.744 127.222C112.627 125.694 112.475 124.231 113.803 122.962C115.601 121.222 117.22 122.754 118.09 123.888C118.09 123.888 118.456 124.329 119.085 125.149L119.313 125.446C119.366 125.516 119.54 125.742 119.54 125.742L121.991 128.937L123.583 127.688L120.41 123.551C120.41 123.551 119.183 122.024 118.641 121.497Z" fill="#1D2947"/>
<path d="M125.56 118.637L123.071 116.405L121.815 115.367L122.804 114.363L123.67 113.397L122.54 112.383L121.674 113.349L120.781 114.411L119.795 113.467L117.68 111.542L116.976 113.481L118.615 114.98L119.562 115.77L118.384 117.018L119.514 118.032L120.61 116.71L121.809 117.845L124.954 120.665C124.987 120.694 125.003 120.709 125.02 120.723C127.1 122.589 128.678 123.531 131.078 119.537L129.508 118.75C129.508 118.75 129.323 119.352 128.823 119.909C127.854 120.99 127.346 120.238 125.56 118.637Z" fill="#1D2947"/>
<path d="M137.605 105.975L133.727 103.672C132.614 103.047 131.298 102.12 129.502 102.831C128.024 103.401 126.8 105.798 126.513 106.653C126.291 107.316 126.227 107.972 126.31 108.64C126.378 109.377 126.741 110.008 127.221 110.532L128.522 109.237C126.983 107.659 129.017 104.647 130.324 104.36C131.382 104.101 131.99 104.753 131.99 104.753C132.403 105.133 132.085 106.123 131.413 107.569C131.123 108.216 130.821 108.883 130.57 109.425C128.851 113.4 133.861 116.467 136.624 111.916C137.092 111.145 137.371 110.388 137.454 109.743C137.489 109.43 137.532 109.147 137.485 108.887C137.364 108.196 137.042 107.666 137.042 107.666L138.513 108.379L139.591 106.562L137.605 105.975ZM134.653 106.344C135.424 106.812 135.768 107.433 135.93 108.098C136.178 109.046 135.924 110.101 135.421 110.929C135.068 111.512 134.642 112 134.072 112.22C133.153 112.588 132.061 112.055 131.915 111.194C131.621 109.728 133.553 107.35 133.581 105.693L134.653 106.344Z" fill="#1D2947"/>
<path d="M141.621 98.3214C141.031 99.9793 139.259 100.889 136.536 99.9431C134.409 99.1619 133.067 97.7497 133.715 95.6685C134.378 93.5458 136.435 93.6714 136.435 93.6714L136.642 91.7133C136.642 91.7133 133.643 91.3458 132.285 95.1591C131.244 98.0812 132.667 100.643 135.838 101.773C139.61 103.116 142.222 101.618 143.174 98.9446C144.555 95.0692 141.972 93.402 141.972 93.402L140.936 95.0647C140.936 95.0647 142.354 96.2001 141.621 98.3214Z" fill="#1D2947"/>
<path d="M141.321 85.6796L138.018 85.1575L136.399 84.9685L136.684 83.5881L136.887 82.306L135.388 82.069L135.185 83.3511L135.012 84.7269L133.672 84.4705L130.85 84.0022L131.312 86.013L133.503 86.3816L134.727 86.5305L134.415 88.2186L135.915 88.4556L136.118 86.7504L137.74 87.0515L141.913 87.711C141.956 87.7178 141.978 87.7213 142 87.7247C144.759 88.161 146.596 88.0949 146.441 83.4377L144.696 83.6295C144.696 83.6295 144.868 84.2357 144.751 84.9745C144.524 86.4087 143.689 86.054 141.321 85.6796Z" fill="#1D2947"/>
</svg>
