<svg width="152" height="151" fill="none" xmlns="http://www.w3.org/2000/svg"><path d="M143.711 61.169c.48 2.461-.754 5.1-5.353 5.997-3.822.746-6.329-.962-6.883-3.454-.76-3.438 1.748-4.6 1.748-4.6l-.665-1.797s-3.678 1.48-2.684 6.575c.762 3.909 3.939 6.292 8.867 5.353 5.182-1.01 7.428-4.318 6.624-8.442-1.003-5.14-4.778-5.187-4.778-5.187l-.143 1.91s2.546-.048 3.267 3.645zm-13.779-9.984c1.534 3.435 4.383 3.826 7.577 2.4 2.551-1.14 4.617-3.58 3.05-7.145-1.669-3.736-5.006-3.547-7.477-2.444-2.993 1.337-4.63 3.875-3.15 7.19zm9.221-4.117c.798 1.788.122 3.511-2.791 4.812-2.35 1.05-4.319.363-5.037-1.244-.736-1.648-.23-3.536 2.362-4.693 2.832-1.265 4.676-.643 5.466 1.125zM123.52 34.449c-1.825 1.791-1.444 3.772-.46 5.124 1.67 2.294 3.569 1.837 3.569 1.837l-1.298.945 1.1 1.512 9-6.552-1.153-1.583-5.157 3.755c-1.556 1.078-3.023 1.194-4.258-.166-1.694-1.841-.123-3.42 1.033-4.262 0 0 .45-.355 1.286-.963l.302-.22.302-.22 3.255-2.37-1.209-1.624-4.215 3.07s-1.557 1.187-2.097 1.717zm-2.687-6.99l-2.294 2.433-1.069 1.23-.979-1.015-.944-.89-1.042 1.104.945.89 1.038.92-.967.962-1.978 2.066 1.92.752 1.541-1.601.813-.927 1.218 1.21 1.042-1.105-1.294-1.129 1.164-1.17 2.898-3.073.06-.064c1.917-2.033 2.898-3.587-1.035-6.086l-.826 1.55s.598.2 1.142.713c1.056.996.293 1.485-1.353 3.23zm-12.357-12.357l-2.399 3.819c-.652 1.098-1.612 2.39-.946 4.203.533 1.492 2.898 2.775 3.746 3.084a4.422 4.422 0 001.981.252c.738-.05 1.379-.396 1.914-.863l-1.262-1.333c-1.616 1.499-4.576-.61-4.83-1.924-.232-1.064.435-1.655.435-1.655.389-.404 1.372-.06 2.8.647.64.306 1.298.624 1.834.89 3.931 1.817 7.122-3.115 2.642-5.99-.759-.488-1.509-.786-2.151-.884-.312-.044-.594-.094-.856-.053a3.901 3.901 0 00-1.231.412l.749-1.453-1.789-1.122-.637 1.97zm.296 2.96c.487-.759 1.116-1.087 1.785-1.233.954-.224 2.002.057 2.817.58.574.368 1.051.805 1.257 1.382.345.927-.216 2.005-1.08 2.13-1.472.257-3.802-1.734-5.457-1.803l.678-1.056zm-8.845-7.192c1.642.632 2.508 2.426 1.494 5.124-.834 2.107-2.28 3.413-4.344 2.713-2.106-.716-1.929-2.769-1.929-2.769l-1.952-.256s-.442 2.989 3.336 4.442c2.895 1.114 5.492-.244 6.7-3.386 1.438-3.737.005-6.386-2.643-7.405-3.84-1.477-5.571 1.063-5.571 1.063l1.636 1.077s1.17-1.388 3.273-.603zm-12.646-.016l-.604 3.289-.23 1.613-1.373-.32-1.276-.234-.275 1.493 1.277.234 1.371.208-.29 1.333-.539 2.809 2.022-.411.423-2.182.18-1.22 1.68.354.274-1.493-1.7-.245.342-1.615.764-4.154.016-.087c.505-2.748.485-4.586-4.175-4.548l.148 1.75s.61-.156 1.346-.02c1.428.262 1.053 1.087.62 3.446zM60.572 8.327c2.457-.5 5.106.71 6.042 5.302.778 3.816-.909 6.337-3.396 6.912-3.432.789-4.615-1.71-4.615-1.71l-1.792.68s1.51 3.666 6.598 2.63c3.902-.795 6.259-3.992 5.279-8.912-1.054-5.174-4.38-7.392-8.498-6.553-5.13 1.045-5.147 4.82-5.147 4.82l1.912.127s-.07-2.545 3.617-3.296zm-9.868 13.861c3.422-1.563 3.788-4.415 2.336-7.597-1.16-2.541-3.619-4.587-7.17-2.99-3.722 1.7-3.505 5.035-2.382 7.496 1.362 2.982 3.914 4.598 7.216 3.09zm-4.194-9.186c1.78-.814 3.51-.152 4.835 2.75 1.069 2.341.398 4.316-1.203 5.047-1.64.75-3.533.26-4.712-2.322-1.288-2.822-.681-4.671 1.08-5.475zM34.021 28.74c1.807 1.81 3.785 1.412 5.128.417 2.28-1.69 1.808-3.584 1.808-3.584l.956 1.29 1.502-1.113-6.627-8.945-1.573 1.166 3.798 5.126c1.091 1.547 1.219 3.013-.13 4.259-1.828 1.71-3.42.151-4.271-.998 0 0-.358-.446-.974-1.277l-.223-.3-.222-.3-2.397-3.236-1.613 1.223 3.104 4.19s1.2 1.546 1.734 2.082zm-6.967 2.744l2.452 2.273 1.238 1.06-1.006.987-.882.951 1.113 1.032.883-.951.91-1.046.97.96 2.082 1.96.737-1.927-1.614-1.527-.934-.805 1.2-1.229-1.114-1.032-1.118 1.303-1.18-1.154-3.097-2.872-.065-.06c-2.049-1.9-3.61-2.868-6.077 1.085l1.556.814s.196-.6.704-1.148c.988-1.065 1.483-.305 3.242 1.326zM14.8 43.944l3.84 2.367c1.102.643 2.403 1.592 4.21.91 1.487-.544 2.75-2.92 3.052-3.77a4.42 4.42 0 00.236-1.984c-.055-.737-.407-1.375-.879-1.907l-1.322 1.274c1.512 1.603-.572 4.58-1.884 4.846-1.061.24-1.658-.422-1.658-.422-.407-.386-.072-1.371.623-2.805.301-.643.614-1.304.874-1.841 1.785-3.947-3.173-7.097-6.011-2.592-.481.763-.773 1.515-.866 2.158-.041.313-.089.595-.045.856a3.9 3.9 0 00.422 1.228l-1.46-.737-1.107 1.798 1.975.62zm2.959-.32c-.764-.482-1.097-1.108-1.249-1.775-.232-.952.04-2.003.556-2.822.364-.577.797-1.058 1.372-1.269.924-.353 2.007.2 2.139 1.062.27 1.47-1.703 3.816-1.758 5.472l-1.06-.669zm-7.119 8.905c.618-1.648 2.405-2.529 5.111-1.537 2.114.817 3.432 2.251 2.75 4.321-.699 2.111-2.753 1.952-2.753 1.952l-.24 1.954s2.992.417 4.414-3.373c1.09-2.904-.29-5.49-3.442-6.672-3.749-1.406-6.386.048-7.383 2.706-1.445 3.852 1.11 5.562 1.11 5.562l1.063-1.646s-1.398-1.158-.63-3.267zm.09 12.645l3.293.577 1.615.216-.308 1.375-.224 1.279 1.495.262.224-1.279.196-1.373 1.336.28 2.814.514-.429-2.018-2.184-.405-1.221-.17.339-1.682-1.495-.262-.231 1.702-1.618-.328-4.16-.73c-.044-.007-.066-.01-.087-.015-2.752-.482-4.59-.447-4.513 4.213l1.748-.163s-.161-.609-.032-1.346c.25-1.43 1.08-1.061 3.441-.647zM8.425 91.903c-.521-2.453.668-5.112 5.252-6.086 3.809-.81 6.344.856 6.94 3.339.817 3.424-1.671 4.628-1.671 4.628l.694 1.787s3.654-1.541 2.575-6.62c-.828-3.895-4.044-6.225-8.955-5.204-5.165 1.097-7.356 4.441-6.483 8.551 1.089 5.122 4.864 5.107 4.864 5.107l.11-1.913s-2.544.091-3.326-3.589zm13.943 9.753c-1.59-3.41-4.446-3.752-7.616-2.273-2.531 1.182-4.557 3.657-2.93 7.195 1.73 3.708 5.064 3.463 7.516 2.319 2.97-1.387 4.565-3.952 3.03-7.241zm-9.15 4.27c-.829-1.774-.181-3.508 2.71-4.858 2.332-1.088 4.312-.434 5.056 1.161.763 1.634.289 3.531-2.283 4.731-2.81 1.312-4.665.721-5.484-1.034zm15.842 11.357c1.794-1.822 1.38-3.796.374-5.131-1.709-2.266-3.6-1.778-3.6-1.778l1.283-.967-1.126-1.493-8.889 6.702 1.179 1.563 5.094-3.841c1.538-1.103 3.002-1.243 4.26.095 1.725 1.813.18 3.419-.962 4.28 0 0-.443.362-1.27.984l-.298.225-.298.225-3.215 2.424 1.236 1.603 4.163-3.139s1.537-1.214 2.068-1.752zm2.801 6.944l2.253-2.471 1.049-1.248.995.998.96.875 1.022-1.122-.959-.875-1.053-.901.951-.978 1.944-2.099-1.934-.72-1.513 1.627-.798.94-1.238-1.189-1.023 1.121 1.313 1.108-1.145 1.189-2.846 3.122-.06.065c-1.882 2.064-2.837 3.634 1.137 6.067l.8-1.563s-.6-.19-1.153-.694c-1.073-.978-.318-1.48 1.298-3.252zm12.561 12.149l2.336-3.859c.633-1.108 1.572-2.416.875-4.218-.557-1.483-2.944-2.726-3.796-3.021a4.432 4.432 0 00-1.986-.219c-.737.062-1.372.419-1.899.895l1.284 1.312c1.59-1.526 4.585.533 4.862 1.843.25 1.06-.407 1.662-.407 1.662-.383.41-1.371.083-2.811-.6-.645-.296-1.309-.603-1.849-.859-3.96-1.752-7.07 3.232-2.541 6.033.767.475 1.521.76 2.165.848.313.038.596.084.856.038a3.913 3.913 0 001.225-.432l-.725 1.465 1.807 1.092.605-1.98zm-.344-2.955c-.475.767-1.098 1.106-1.765 1.263-.95.24-2.003-.024-2.826-.533-.58-.359-1.065-.788-1.28-1.361-.36-.921.182-2.008 1.044-2.148 1.468-.282 3.83 1.671 5.486 1.712l-.66 1.067zm8.964 7.044c-1.653-.605-2.548-2.384-1.579-5.099.8-2.12 2.222-3.45 4.298-2.785 2.117.68 1.974 2.736 1.974 2.736l1.957.224s.392-2.996-3.41-4.386c-2.913-1.065-5.487.336-6.643 3.498-1.375 3.76.102 6.385 2.767 7.359 3.864 1.413 5.553-1.155 5.553-1.155l-1.654-1.05s-1.148 1.408-3.263.658zm12.644-.196l.55-3.298.202-1.617 1.378.297 1.28.213.25-1.497-1.28-.214-1.375-.184.268-1.338.492-2.818-2.015.445-.387 2.188-.159 1.223-1.685-.326-.25 1.498 1.704.217-.315 1.62-.694 4.166-.015.087c-.459 2.756-.408 4.594 4.25 4.478l-.177-1.747s-.608.166-1.345.043c-1.433-.238-1.071-1.07-.677-3.436zm26.748 2.082c-2.448.541-5.118-.626-6.13-5.201-.84-3.802.803-6.352 3.281-6.967 3.418-.846 4.642 1.632 4.642 1.632l1.78-.71s-1.57-3.64-6.64-2.519c-3.888.86-6.192 4.096-5.13 8.998 1.14 5.156 4.503 7.319 8.606 6.411 5.112-1.131 5.066-4.906 5.066-4.906l-1.914-.095s.112 2.544-3.56 3.357zm9.635-14.024c-3.395 1.619-3.714 4.477-2.208 7.634 1.202 2.522 3.694 4.527 7.218 2.871 3.694-1.762 3.421-5.093 2.256-7.535-1.411-2.959-3.989-4.533-7.266-2.97zm4.347 9.115c-1.767.842-3.507.21-4.88-2.67-1.108-2.323-.471-4.309 1.118-5.066 1.628-.777 3.529-.318 4.75 2.243 1.336 2.8.76 4.659-.988 5.493zm12.225-15.945c-1.837-1.78-3.808-1.349-5.135-.331-2.251 1.727-1.747 3.614-1.747 3.614l-.977-1.275-1.484 1.139 6.775 8.832 1.554-1.192-3.883-5.062c-1.117-1.528-1.269-2.991.059-4.26 1.798-1.74 3.417-.208 4.287.926 0 0 .366.441.995 1.261l.228.297.227.296 2.451 3.195 1.592-1.249-3.173-4.137s-1.227-1.527-1.769-2.054zm6.919-2.86l-2.489-2.232-1.256-1.038.989-1.004.866-.966-1.13-1.014-.866.966-.893 1.062-.986-.944-2.115-1.925-.704 1.939 1.639 1.499.947.79-1.178 1.248 1.13 1.014 1.096-1.322 1.199 1.135 3.145 2.82.066.058c2.08 1.866 3.658 2.808 6.058-1.186l-1.57-.787s-.185.602-.685 1.159c-.969 1.081-1.477.329-3.263-1.272zm12.045-12.662l-3.878-2.303c-1.113-.625-2.429-1.552-4.225-.841-1.478.57-2.702 2.967-2.989 3.822a4.432 4.432 0 00-.203 1.987c.068.737.431 1.368.911 1.892l1.301-1.295c-1.539-1.578.495-4.59 1.802-4.877 1.058-.259 1.666.393 1.666.393.413.38.095 1.37-.577 2.816-.29.647-.592 1.314-.843 1.856-1.719 3.975 3.291 7.042 6.054 2.491.468-.771.747-1.528.83-2.173.035-.313.078-.596.031-.856-.121-.691-.443-1.221-.443-1.221l1.471.713 1.078-1.817-1.986-.587zm-2.952.369c.771.468 1.115 1.089 1.277 1.754.248.948-.006 2.003-.509 2.831-.353.583-.779 1.071-1.349 1.291-.919.368-2.011-.165-2.157-1.026-.294-1.466 1.638-3.844 1.666-5.501l1.072.651zm6.968-8.023c-.59 1.658-2.362 2.568-5.085 1.622-2.127-.781-3.469-2.193-2.821-4.275.663-2.122 2.72-1.997 2.72-1.997l.207-1.958s-2.999-.367-4.357 3.446c-1.041 2.922.382 5.484 3.553 6.614 3.772 1.343 6.384-.155 7.336-2.828 1.381-3.876-1.202-5.543-1.202-5.543l-1.036 1.663s1.418 1.135.685 3.256zm-.3-12.641l-3.303-.523-1.619-.188.285-1.38.203-1.283-1.499-.237-.203 1.282-.173 1.376-1.34-.257-2.822-.468.462 2.011 2.191.369 1.224.148-.312 1.689 1.5.237.203-1.706 1.622.302 4.173.659.087.014c2.759.436 4.596.37 4.441-4.287l-1.745.191s.172.607.055 1.346c-.227 1.434-1.062 1.079-3.43.705z" fill="#1D2947"/></svg>