<svg width="178" height="118" fill="none" xmlns="http://www.w3.org/2000/svg"><path d="M2.5 0l2.378 1.727-.909 2.796H1.031L.122 1.727 2.5 0zm25 0l2.378 1.727-.909 2.796H26.03l-.908-2.796L27.5 0zm25 0l2.378 1.727-.909 2.796h-2.938l-.909-2.796L52.5 0zm25 0l2.378 1.727-.909 2.796h-2.938l-.909-2.796L77.5 0zm-75 23l2.378 1.727-.909 2.796H1.031l-.909-2.796L2.5 23zm25 0l2.378 1.727-.909 2.796H26.03l-.908-2.796L27.5 23zm25 0l2.378 1.727-.909 2.796h-2.938l-.909-2.796L52.5 23zm25 0l2.378 1.727-.909 2.796h-2.938l-.909-2.796L77.5 23zm-75 23l2.378 1.727-.909 2.796H1.031l-.909-2.796L2.5 46zm25 0l2.378 1.727-.909 2.796H26.03l-.908-2.796L27.5 46zm25 0l2.378 1.727-.909 2.796h-2.938l-.909-2.796L52.5 46zm25 0l2.378 1.727-.909 2.796h-2.938l-.909-2.796L77.5 46zm-75 21l2.378 1.728-.909 2.794H1.031l-.909-2.794L2.5 67zm25 0l2.378 1.728-.909 2.794H26.03l-.908-2.794L27.5 67zm25 0l2.378 1.728-.909 2.794h-2.938l-.909-2.794L52.5 67zm25 0l2.378 1.728-.909 2.794h-2.938l-.909-2.794L77.5 67zm-75 23l2.378 1.728-.909 2.794H1.031l-.909-2.794L2.5 90zm25 0l2.378 1.728-.909 2.794H26.03l-.908-2.794L27.5 90zm25 0l2.378 1.728-.909 2.794h-2.938l-.909-2.794L52.5 90zm25 0l2.378 1.728-.909 2.794h-2.938l-.909-2.794L77.5 90zm-75 23l2.378 1.727-.909 2.796H1.031l-.909-2.796L2.5 113zm25 0l2.378 1.727-.909 2.796H26.03l-.908-2.796L27.5 113zm25 0l2.378 1.727-.909 2.796h-2.938l-.909-2.796L52.5 113zm25 0l2.378 1.727-.909 2.796h-2.938l-.909-2.796L77.5 113zm23-113l2.378 1.727-.909 2.796h-2.938l-.909-2.796L100.5 0zm25 0l2.378 1.727-.909 2.796h-2.938l-.909-2.796L125.5 0zm25 0l2.378 1.727-.909 2.796h-2.938l-.909-2.796L150.5 0zm25 0l2.378 1.727-.909 2.796h-2.938l-.909-2.796L175.5 0zm-75 23l2.378 1.727-.909 2.796h-2.938l-.909-2.796L100.5 23zm25 0l2.378 1.727-.909 2.796h-2.938l-.909-2.796L125.5 23zm25 0l2.378 1.727-.909 2.796h-2.938l-.909-2.796L150.5 23zm25 0l2.378 1.727-.909 2.796h-2.938l-.909-2.796L175.5 23zm-75 23l2.378 1.727-.909 2.796h-2.938l-.909-2.796L100.5 46zm25 0l2.378 1.727-.909 2.796h-2.938l-.909-2.796L125.5 46zm25 0l2.378 1.727-.909 2.796h-2.938l-.909-2.796L150.5 46zm25 0l2.378 1.727-.909 2.796h-2.938l-.909-2.796L175.5 46zm-75 21l2.378 1.728-.909 2.794h-2.938l-.909-2.794L100.5 67zm25 0l2.378 1.728-.909 2.794h-2.938l-.909-2.794L125.5 67zm25 0l2.378 1.728-.909 2.794h-2.938l-.909-2.794L150.5 67zm25 0l2.378 1.728-.909 2.794h-2.938l-.909-2.794L175.5 67zm-75 23l2.378 1.728-.909 2.794h-2.938l-.909-2.794L100.5 90zm25 0l2.378 1.728-.909 2.794h-2.938l-.909-2.794L125.5 90zm25 0l2.378 1.728-.909 2.794h-2.938l-.909-2.794L150.5 90zm25 0l2.378 1.728-.909 2.794h-2.938l-.909-2.794L175.5 90zm-75 23l2.378 1.727-.909 2.796h-2.938l-.909-2.796L100.5 113zm25 0l2.378 1.727-.909 2.796h-2.938l-.909-2.796L125.5 113zm25 0l2.378 1.727-.909 2.796h-2.938l-.909-2.796L150.5 113zm25 0l2.378 1.727-.909 2.796h-2.938l-.909-2.796L175.5 113z" fill="#1D2947"/></svg>