<svg width="109" height="78" fill="none" xmlns="http://www.w3.org/2000/svg"><path fill-rule="evenodd" clip-rule="evenodd" d="M43.03 20.372v-6.404l-4.473 2.548v6.404l4.473-2.548zm1.326-7.163v6.394l13.7-7.813V5.385l-13.7 7.824zm30.053.759v6.404l4.473 2.548v-6.404l-4.473-2.548zM43.03 39.066V21.87l-4.473 2.548v14.647h4.473zm15.027 0V13.298l-13.701 7.813v17.955h13.7zm15.027 0V21.11l-13.702-7.813v25.768h13.702zM43.03 44.79v-4.416h-4.473v4.416h4.473zm15.027 0v-4.416H44.356v4.416h13.7zm20.825 0v-4.416h-4.473v4.416h4.473zM65.545 1.129L60.04 4.266l20.168 11.5V46.1H44.356v5.315H43.03V46.1h-4.473v5.145h-1.325V46.1h-6.456v-1.31h6.456v-4.415h-8.44v-1.31h8.44V25.179l-4.108 2.338-.658-1.13 4.766-2.717v-6.404l-3.754 2.138-.658-1.129 4.412-2.518V6.604h1.325v8.393l4.473-2.548V4.806h1.326V11.7L64.887 0l.658 1.129z" fill="#1D2947"/><path d="M11.352 60.633v11.895h-2.22V67.33H3.545v5.2H1.324V60.632h2.222v5.117H9.13v-5.117h2.221zm6.465 3.323a4.57 4.57 0 011.702.305 3.678 3.678 0 012.164 2.229c.197.538.296 1.138.296 1.802 0 .669-.099 1.272-.296 1.81-.198.537-.48.995-.847 1.373-.362.379-.801.67-1.317.872a4.569 4.569 0 01-1.702.305 4.66 4.66 0 01-1.72-.305 3.717 3.717 0 01-1.324-.872 4.007 4.007 0 01-.848-1.373 5.234 5.234 0 01-.296-1.81c0-.664.099-1.264.296-1.802a3.92 3.92 0 01.848-1.365 3.773 3.773 0 011.324-.864 4.658 4.658 0 011.72-.305zm0 7.133c.701 0 1.22-.236 1.554-.708.34-.471.51-1.162.51-2.073 0-.91-.17-1.604-.51-2.081-.334-.477-.852-.716-1.554-.716-.713 0-1.243.242-1.588.724-.34.477-.51 1.168-.51 2.073s.17 1.596.51 2.073c.345.472.875.708 1.588.708zm13.642-7.001v8.44h-1.242c-.268 0-.438-.123-.51-.37l-.14-.674a4.618 4.618 0 01-1.143.855c-.417.214-.908.32-1.473.32-.46 0-.869-.076-1.225-.23a2.497 2.497 0 01-.889-.666 2.96 2.96 0 01-.551-1.012 4.434 4.434 0 01-.18-1.3v-5.363h2.031v5.364c0 .515.118.916.354 1.2.241.28.6.42 1.077.42.351 0 .68-.076.988-.23a3.54 3.54 0 00.872-.65v-6.104h2.031zm7.823 1.645a.588.588 0 01-.173.19.478.478 0 01-.23.049.752.752 0 01-.32-.082 9.63 9.63 0 00-.387-.181 3.218 3.218 0 00-.51-.19 2.38 2.38 0 00-.667-.082c-.4 0-.716.085-.946.255a.797.797 0 00-.337.667c0 .18.057.334.172.46.121.12.277.228.47.321.197.093.419.178.666.255.247.071.496.15.748.239.258.087.51.189.757.304.247.11.466.252.658.428.198.17.354.375.47.617.12.241.18.532.18.872 0 .406-.074.781-.222 1.127a2.43 2.43 0 01-.642.888 3.131 3.131 0 01-1.06.584c-.418.137-.9.206-1.449.206a4.44 4.44 0 01-.855-.082 4.641 4.641 0 01-1.505-.543 3.505 3.505 0 01-.568-.412L34 70.85a.663.663 0 01.214-.214.6.6 0 01.312-.074c.126 0 .244.036.354.107.115.071.247.148.395.23.148.083.32.16.518.23.203.072.458.108.765.108.241 0 .447-.028.617-.082a1.33 1.33 0 00.428-.23.804.804 0 00.247-.322.96.96 0 00.082-.386c0-.198-.06-.36-.181-.486a1.483 1.483 0 00-.469-.329 4.041 4.041 0 00-.666-.246c-.247-.077-.502-.16-.765-.247a8.224 8.224 0 01-.765-.305 2.802 2.802 0 01-.667-.452 2.115 2.115 0 01-.469-.666c-.115-.264-.172-.582-.172-.955 0-.345.068-.674.205-.987a2.29 2.29 0 01.6-.814c.27-.236.601-.423.996-.56a4.11 4.11 0 011.382-.214c.581 0 1.11.096 1.588.288.477.192.875.445 1.193.757l-.461.732zm8.176 1.605c0-.264-.038-.51-.115-.74a1.711 1.711 0 00-.329-.618 1.503 1.503 0 00-.568-.411 1.862 1.862 0 00-.79-.157c-.586 0-1.05.168-1.39.502-.334.335-.548.81-.641 1.424h3.833zm-3.874 1.225c.033.433.11.81.23 1.127.12.313.28.573.477.782.198.203.43.356.7.46.274.1.575.148.904.148.33 0 .612-.038.848-.115a3.79 3.79 0 00.625-.255c.18-.093.337-.178.469-.255a.809.809 0 01.395-.115c.17 0 .296.063.378.19l.584.74a3.48 3.48 0 01-.757.666c-.28.175-.573.318-.88.428a4.885 4.885 0 01-.93.222 6.563 6.563 0 01-.913.066 4.567 4.567 0 01-1.637-.288 3.738 3.738 0 01-1.316-.864 4.104 4.104 0 01-.88-1.415c-.214-.565-.321-1.217-.321-1.958 0-.576.093-1.116.28-1.62.186-.51.452-.952.798-1.325a3.802 3.802 0 011.275-.897c.504-.219 1.072-.329 1.703-.329a4.13 4.13 0 011.472.255c.45.17.837.42 1.16.749.324.324.576.724.757 1.201.186.472.28 1.012.28 1.62 0 .308-.033.516-.1.626-.065.104-.191.156-.378.156h-5.223zm23.426-1.982c0 .872-.145 1.672-.436 2.402-.29.73-.7 1.357-1.226 1.884a5.483 5.483 0 01-1.9 1.225c-.74.291-1.563.436-2.468.436h-4.533V60.633h4.533c.905 0 1.728.148 2.468.444.74.29 1.374.7 1.9 1.226a5.43 5.43 0 011.226 1.876c.29.729.436 1.53.436 2.402zm-2.27 0c0-.653-.088-1.237-.264-1.753-.17-.52-.42-.96-.748-1.316a3.198 3.198 0 00-1.185-.83 4.032 4.032 0 00-1.563-.289h-2.312v8.375h2.312a4.03 4.03 0 001.563-.288 3.242 3.242 0 001.185-.823c.329-.362.578-.8.748-1.316a5.497 5.497 0 00.263-1.76zm9.886.757c0-.264-.038-.51-.115-.74a1.713 1.713 0 00-.33-.618 1.503 1.503 0 00-.567-.411 1.862 1.862 0 00-.79-.157c-.586 0-1.05.168-1.39.502-.334.335-.548.81-.641 1.424h3.833zm-3.875 1.225c.033.433.11.81.23 1.127.121.313.28.573.478.782.197.203.43.356.7.46.273.1.575.148.904.148.33 0 .611-.038.847-.115a3.79 3.79 0 00.626-.255c.18-.093.337-.178.468-.255a.809.809 0 01.395-.115c.17 0 .296.063.379.19l.584.74a3.477 3.477 0 01-.757.666 4.5 4.5 0 01-.88.428 4.887 4.887 0 01-.93.222 6.564 6.564 0 01-.913.066 4.567 4.567 0 01-1.637-.288 3.737 3.737 0 01-1.316-.864 4.103 4.103 0 01-.88-1.415c-.214-.565-.321-1.217-.321-1.958 0-.576.093-1.116.28-1.62a3.89 3.89 0 01.797-1.325 3.8 3.8 0 011.275-.897 4.24 4.24 0 011.703-.329c.532 0 1.023.085 1.473.255.45.17.836.42 1.16.749.323.324.576.724.757 1.201.186.472.28 1.012.28 1.62 0 .308-.034.516-.1.626-.065.104-.191.156-.378.156h-5.224zm13.034-2.83a.587.587 0 01-.173.19.478.478 0 01-.23.049.752.752 0 01-.32-.082 9.576 9.576 0 00-.388-.181 3.217 3.217 0 00-.51-.19 2.38 2.38 0 00-.666-.082c-.4 0-.716.085-.946.255a.797.797 0 00-.337.667c0 .18.057.334.172.46.121.12.278.228.47.321.197.093.419.178.666.255.246.071.496.15.748.239.258.087.51.189.757.304.247.11.466.252.658.428.198.17.354.375.47.617.12.241.18.532.18.872 0 .406-.074.781-.222 1.127a2.43 2.43 0 01-.642.888 3.131 3.131 0 01-1.06.584c-.418.137-.9.206-1.449.206a4.44 4.44 0 01-.855-.082 4.64 4.64 0 01-1.505-.543 3.51 3.51 0 01-.568-.412l.469-.773a.665.665 0 01.213-.214.6.6 0 01.313-.074c.126 0 .244.036.354.107.115.071.247.148.395.23.148.083.32.16.518.23.203.072.458.108.765.108.241 0 .447-.028.617-.082a1.34 1.34 0 00.428-.23.805.805 0 00.247-.322.96.96 0 00.082-.386c0-.198-.06-.36-.181-.486a1.483 1.483 0 00-.469-.329 4.046 4.046 0 00-.666-.246c-.247-.077-.502-.16-.765-.247a8.226 8.226 0 01-.766-.305 2.8 2.8 0 01-.666-.452 2.111 2.111 0 01-.469-.666c-.115-.264-.172-.582-.172-.955 0-.345.068-.674.205-.987.137-.313.338-.584.6-.814.27-.236.601-.423.996-.56a4.11 4.11 0 011.382-.214c.581 0 1.11.096 1.588.288.477.192.875.445 1.193.757l-.461.732zm4.845-1.645v8.44h-2.04v-8.44h2.04zm.28-2.46c0 .176-.036.34-.108.494a1.32 1.32 0 01-.288.403 1.364 1.364 0 01-.41.28 1.32 1.32 0 01-.51.098 1.3 1.3 0 01-.503-.098 1.395 1.395 0 01-.682-.683 1.319 1.319 0 010-1.004 1.324 1.324 0 01.682-.683 1.24 1.24 0 011.012 0c.16.066.296.157.411.272a1.28 1.28 0 01.395.921zm5.534 6.475c.252 0 .472-.033.658-.1.187-.07.34-.166.46-.287.127-.12.22-.266.28-.436.066-.17.1-.357.1-.56 0-.416-.127-.745-.38-.987-.246-.246-.619-.37-1.118-.37-.499 0-.875.124-1.127.37-.247.242-.37.57-.37.987 0 .198.03.382.09.552.066.17.16.318.28.444.126.12.283.217.469.288.192.066.411.099.658.099zm2.295 4.804a.562.562 0 00-.148-.403.94.94 0 00-.403-.239c-.17-.06-.37-.104-.6-.132a9.174 9.174 0 00-.724-.057c-.253-.017-.516-.03-.79-.041a9.173 9.173 0 01-.79-.066 1.96 1.96 0 00-.551.444.916.916 0 00-.099 1.004.956.956 0 00.354.337c.165.093.376.165.633.214.258.055.574.082.947.082.378 0 .704-.03.978-.09.275-.055.5-.135.675-.239a.982.982 0 00.395-.362.863.863 0 00.123-.452zm2.024-8.531v.757c0 .241-.145.39-.436.444l-.757.14c.115.29.173.609.173.954a2.483 2.483 0 01-.946 1.99c-.296.237-.647.42-1.053.552-.4.126-.834.19-1.3.19a4.61 4.61 0 01-.477-.025 5.97 5.97 0 01-.453-.066c-.263.159-.394.337-.394.535 0 .17.076.296.23.378.16.077.368.132.625.165.258.032.551.054.88.065.33.006.667.022 1.012.05a7.43 7.43 0 011.012.148c.33.066.623.172.88.32.258.149.464.352.617.61.16.252.239.578.239.978 0 .373-.093.735-.28 1.086a2.85 2.85 0 01-.798.938 4.024 4.024 0 01-1.283.658c-.505.17-1.08.255-1.728.255-.636 0-1.19-.063-1.661-.19-.472-.12-.864-.284-1.177-.493a2.096 2.096 0 01-.699-.707 1.669 1.669 0 01-.23-.84c0-.394.118-.723.353-.987.242-.268.57-.482.988-.641a1.417 1.417 0 01-.535-.46c-.132-.193-.198-.445-.198-.758 0-.126.022-.255.066-.386.05-.137.118-.272.206-.403.093-.132.208-.255.345-.37a2.26 2.26 0 01.486-.321 2.695 2.695 0 01-1.012-.922c-.241-.384-.362-.833-.362-1.349 0-.417.082-.792.247-1.127.17-.34.403-.628.699-.864a3.198 3.198 0 011.061-.55c.412-.127.859-.19 1.341-.19.362 0 .702.038 1.02.115.318.071.609.178.872.32h2.427zm3.847.748c.17-.17.348-.326.535-.468a3.298 3.298 0 011.283-.61c.241-.06.505-.09.79-.09.46 0 .869.08 1.226.239.356.154.652.373.888.658.241.28.422.617.543 1.012.126.39.189.82.189 1.291v5.372h-2.032v-5.372c0-.515-.118-.913-.354-1.192-.235-.285-.595-.428-1.077-.428-.351 0-.68.08-.987.238a3.52 3.52 0 00-.872.65v6.104h-2.032v-8.44h1.242c.263 0 .436.123.518.37l.14.666z" fill="#1D2947"/></svg>