<svg width="109" height="78" viewBox="0 0 109 78" fill="none" xmlns="http://www.w3.org/2000/svg">
<path fill-rule="evenodd" clip-rule="evenodd" d="M43.0301 20.3722V13.9678L38.5574 16.5156V22.92L43.0301 20.3722ZM44.3557 13.2085V19.6029L58.0569 11.7897V5.38529L44.3557 13.2085ZM74.4094 13.9678V20.3722L78.882 22.92V16.5156L74.4094 13.9678ZM43.0301 39.0659V21.8709L38.5574 24.4187V39.0659H43.0301ZM58.0569 39.0659V13.2984L44.3557 21.1115V39.0659H58.0569ZM73.0837 39.0659V21.1115L59.3825 13.2984V39.0659H73.0837ZM43.0301 44.7909V40.3747H38.5574V44.7909H43.0301ZM58.0569 44.7909V40.3747H44.3557V44.7909H58.0569ZM78.882 44.7909V40.3747H74.4094V44.7909H78.882ZM65.545 1.12899L60.0403 4.26627L80.2076 15.7662V46.0997H44.3557V51.4151H43.0301V46.0997H38.5574V51.2453H37.2318V46.0997H30.7758V44.7909H37.2318V40.3747H28.7925V39.0659H37.2318V25.178L33.1235 27.516L32.4657 26.3869L37.2318 23.6693V17.2649L33.4776 19.4031L32.8199 18.274L37.2318 15.7562V6.60422H38.5574V14.9969L43.0301 12.4491V4.80579H44.3557V11.6998L64.8873 0L65.545 1.12899Z" fill="#1D2947"/>
<path d="M11.3525 60.6329V72.5283H9.13132V67.3292H3.54558V72.5283H1.32445V60.6329H3.54558V65.7498H9.13132V60.6329H11.3525ZM17.8165 63.9564C18.4417 63.9564 19.0093 64.0579 19.5194 64.2608C20.0349 64.4637 20.4736 64.7516 20.8356 65.1245C21.203 65.4975 21.4855 65.9527 21.6829 66.4901C21.8803 67.0276 21.9791 67.6281 21.9791 68.2917C21.9791 68.9608 21.8803 69.5641 21.6829 70.1015C21.4855 70.639 21.203 71.0969 20.8356 71.4753C20.4736 71.8538 20.0349 72.1444 19.5194 72.3473C19.0093 72.5503 18.4417 72.6517 17.8165 72.6517C17.1858 72.6517 16.6127 72.5503 16.0972 72.3473C15.5816 72.1444 15.1402 71.8538 14.7727 71.4753C14.4108 71.0969 14.1283 70.639 13.9254 70.1015C13.728 69.5641 13.6292 68.9608 13.6292 68.2917C13.6292 67.6281 13.728 67.0276 13.9254 66.4901C14.1283 65.9527 14.4108 65.4975 14.7727 65.1245C15.1402 64.7516 15.5816 64.4637 16.0972 64.2608C16.6127 64.0579 17.1858 63.9564 17.8165 63.9564ZM17.8165 71.0887C18.5185 71.0887 19.0367 70.8529 19.3713 70.3812C19.7113 69.9096 19.8813 69.2186 19.8813 68.3082C19.8813 67.3978 19.7113 66.704 19.3713 66.2269C19.0367 65.7498 18.5185 65.5112 17.8165 65.5112C17.1035 65.5112 16.5743 65.7525 16.2288 66.2351C15.8888 66.7122 15.7188 67.4033 15.7188 68.3082C15.7188 69.2131 15.8888 69.9041 16.2288 70.3812C16.5743 70.8529 17.1035 71.0887 17.8165 71.0887ZM31.4595 64.088V72.5283H30.2173C29.9486 72.5283 29.7786 72.4049 29.7073 72.1581L29.5674 71.4836C29.2219 71.8346 28.8407 72.1197 28.4239 72.3391C28.0071 72.553 27.5163 72.6599 26.9514 72.6599C26.4907 72.6599 26.0821 72.5832 25.7257 72.4296C25.3747 72.2706 25.0785 72.0484 24.8372 71.7633C24.5959 71.4781 24.4122 71.1408 24.286 70.7514C24.1654 70.3565 24.1051 69.9233 24.1051 69.4516V64.088H26.137V69.4516C26.137 69.9672 26.2549 70.3675 26.4907 70.6527C26.732 70.9324 27.0913 71.0722 27.5684 71.0722C27.9194 71.0722 28.2484 70.9955 28.5556 70.8419C28.8627 70.6829 29.1533 70.4662 29.4276 70.192V64.088H31.4595ZM39.282 65.7333C39.2272 65.821 39.1696 65.8841 39.1093 65.9225C39.049 65.9554 38.9722 65.9719 38.8789 65.9719C38.7802 65.9719 38.6733 65.9444 38.5581 65.8896C38.4484 65.8348 38.3195 65.7744 38.1715 65.7086C38.0234 65.6373 37.8534 65.5743 37.6614 65.5194C37.475 65.4646 37.2528 65.4372 36.9951 65.4372C36.5947 65.4372 36.2794 65.5222 36.0491 65.6922C35.8242 65.8622 35.7118 66.0843 35.7118 66.3585C35.7118 66.5395 35.7694 66.6931 35.8845 66.8192C36.0052 66.9398 36.1615 67.0468 36.3534 67.14C36.5509 67.2333 36.773 67.3183 37.0198 67.395C37.2666 67.4663 37.5161 67.5459 37.7684 67.6336C38.0261 67.7214 38.2784 67.8228 38.5252 67.938C38.772 68.0477 38.9914 68.1903 39.1833 68.3658C39.3807 68.5358 39.5371 68.7414 39.6522 68.9827C39.7729 69.224 39.8332 69.5147 39.8332 69.8547C39.8332 70.2606 39.7592 70.6362 39.6111 70.9818C39.4685 71.3218 39.2546 71.6179 38.9694 71.8702C38.6842 72.117 38.3305 72.3117 37.9082 72.4543C37.4914 72.5914 37.0088 72.6599 36.4604 72.6599C36.1697 72.6599 35.8845 72.6325 35.6048 72.5777C35.3306 72.5283 35.0646 72.457 34.8069 72.3638C34.5546 72.2706 34.3188 72.1609 34.0994 72.0347C33.8855 71.9086 33.6963 71.7715 33.5318 71.6234L34.0007 70.8501C34.061 70.7569 34.1323 70.6856 34.2146 70.6362C34.2968 70.5869 34.401 70.5622 34.5272 70.5622C34.6533 70.5622 34.7712 70.5979 34.8809 70.6692C34.9961 70.7404 35.1277 70.8172 35.2758 70.8995C35.4238 70.9818 35.5966 71.0585 35.794 71.1298C35.997 71.2011 36.252 71.2368 36.5591 71.2368C36.8004 71.2368 37.0061 71.2094 37.1761 71.1545C37.3516 71.0942 37.4942 71.0174 37.6038 70.9242C37.719 70.8309 37.8013 70.724 37.8506 70.6033C37.9055 70.4772 37.9329 70.3483 37.9329 70.2167C37.9329 70.0193 37.8726 69.8575 37.7519 69.7313C37.6367 69.6052 37.4804 69.4955 37.283 69.4023C37.0911 69.309 36.869 69.2268 36.6167 69.1555C36.3699 69.0787 36.1149 68.9964 35.8516 68.9087C35.5939 68.8209 35.3388 68.7195 35.0866 68.6043C34.8398 68.4837 34.6177 68.3328 34.4202 68.1519C34.2283 67.9709 34.072 67.7488 33.9513 67.4855C33.8361 67.2223 33.7786 66.9042 33.7786 66.5313C33.7786 66.1858 33.8471 65.8567 33.9842 65.5441C34.1213 65.2315 34.3215 64.96 34.5847 64.7297C34.8535 64.4939 35.1853 64.3074 35.5801 64.1703C35.9805 64.0277 36.4412 63.9564 36.9622 63.9564C37.5435 63.9564 38.0727 64.0524 38.5499 64.2443C39.027 64.4363 39.4246 64.6885 39.7427 65.0012L39.282 65.7333ZM47.4583 67.3375C47.4583 67.0742 47.4199 66.8274 47.3431 66.5971C47.2719 66.3613 47.1622 66.1556 47.0141 65.9801C46.866 65.8046 46.6768 65.6675 46.4465 65.5688C46.2216 65.4646 45.9584 65.4125 45.6567 65.4125C45.0699 65.4125 44.6065 65.5797 44.2665 65.9143C43.9319 66.2488 43.718 66.7232 43.6248 67.3375H47.4583ZM43.5837 68.5632C43.6166 68.9964 43.6934 69.3721 43.814 69.6902C43.9347 70.0028 44.0937 70.2633 44.2911 70.4717C44.4886 70.6746 44.7217 70.8282 44.9904 70.9324C45.2646 71.0311 45.5662 71.0805 45.8953 71.0805C46.2244 71.0805 46.5068 71.0421 46.7426 70.9653C46.9839 70.8885 47.1923 70.8035 47.3678 70.7103C47.5488 70.617 47.7051 70.532 47.8367 70.4553C47.9738 70.3785 48.1055 70.3401 48.2316 70.3401C48.4016 70.3401 48.5277 70.4032 48.61 70.5293L49.1941 71.2697C48.9692 71.5329 48.717 71.755 48.4373 71.936C48.1576 72.1115 47.8642 72.2541 47.557 72.3638C47.2554 72.468 46.9455 72.542 46.6274 72.5859C46.3148 72.6298 46.0105 72.6517 45.7143 72.6517C45.1275 72.6517 44.5818 72.5557 44.0773 72.3638C43.5727 72.1664 43.134 71.8784 42.761 71.5C42.3881 71.1161 42.0947 70.6445 41.8808 70.0851C41.6669 69.5202 41.56 68.8676 41.56 68.1272C41.56 67.5513 41.6532 67.0111 41.8397 66.5066C42.0261 65.9965 42.2921 65.5551 42.6376 65.1821C42.9886 64.8037 43.4137 64.5048 43.9127 64.2855C44.4173 64.0661 44.9849 63.9564 45.6156 63.9564C46.1476 63.9564 46.6384 64.0414 47.0881 64.2114C47.5378 64.3814 47.9245 64.631 48.2481 64.96C48.5716 65.2836 48.8239 65.6839 49.0049 66.1611C49.1913 66.6327 49.2846 67.1729 49.2846 67.7817C49.2846 68.0888 49.2517 68.2972 49.1859 68.4069C49.1201 68.5111 48.9939 68.5632 48.8074 68.5632H43.5837ZM67.0099 66.5806C67.0099 67.4526 66.8646 68.2533 66.5739 68.9827C66.2833 69.7121 65.8747 70.3401 65.3482 70.8666C64.8217 71.3931 64.1883 71.8017 63.4479 72.0923C62.7075 72.383 61.8849 72.5283 60.98 72.5283H56.4472V60.6329H60.98C61.8849 60.6329 62.7075 60.781 63.4479 61.0772C64.1883 61.3678 64.8217 61.7764 65.3482 62.3029C65.8747 62.8239 66.2833 63.4491 66.5739 64.1785C66.8646 64.9079 67.0099 65.7086 67.0099 66.5806ZM64.7394 66.5806C64.7394 65.928 64.6517 65.3439 64.4762 64.8284C64.3062 64.3074 64.0566 63.8686 63.7276 63.5122C63.404 63.1502 63.0092 62.8733 62.543 62.6813C62.0823 62.4894 61.5613 62.3934 60.98 62.3934H58.6683V70.7679H60.98C61.5613 70.7679 62.0823 70.6719 62.543 70.4799C63.0092 70.288 63.404 70.0138 63.7276 69.6573C64.0566 69.2953 64.3062 68.8566 64.4762 68.3411C64.6517 67.8201 64.7394 67.2333 64.7394 66.5806ZM74.6261 67.3375C74.6261 67.0742 74.5877 66.8274 74.5109 66.5971C74.4396 66.3613 74.3299 66.1556 74.1818 65.9801C74.0337 65.8046 73.8445 65.6675 73.6142 65.5688C73.3893 65.4646 73.1261 65.4125 72.8245 65.4125C72.2376 65.4125 71.7742 65.5797 71.4342 65.9143C71.0997 66.2488 70.8858 66.7232 70.7925 67.3375H74.6261ZM70.7514 68.5632C70.7843 68.9964 70.8611 69.3721 70.9817 69.6902C71.1024 70.0028 71.2614 70.2633 71.4589 70.4717C71.6563 70.6746 71.8894 70.8282 72.1581 70.9324C72.4323 71.0311 72.734 71.0805 73.063 71.0805C73.3921 71.0805 73.6745 71.0421 73.9104 70.9653C74.1517 70.8885 74.3601 70.8035 74.5356 70.7103C74.7165 70.617 74.8728 70.532 75.0045 70.4553C75.1416 70.3785 75.2732 70.3401 75.3993 70.3401C75.5693 70.3401 75.6955 70.4032 75.7777 70.5293L76.3618 71.2697C76.137 71.5329 75.8847 71.755 75.605 71.936C75.3253 72.1115 75.0319 72.2541 74.7248 72.3638C74.4231 72.468 74.1133 72.542 73.7952 72.5859C73.4826 72.6298 73.1782 72.6517 72.8821 72.6517C72.2952 72.6517 71.7495 72.5557 71.245 72.3638C70.7404 72.1664 70.3017 71.8784 69.9288 71.5C69.5558 71.1161 69.2624 70.6445 69.0485 70.0851C68.8347 69.5202 68.7277 68.8676 68.7277 68.1272C68.7277 67.5513 68.8209 67.0111 69.0074 66.5066C69.1939 65.9965 69.4599 65.5551 69.8054 65.1821C70.1564 64.8037 70.5814 64.5048 71.0805 64.2855C71.585 64.0661 72.1526 63.9564 72.7833 63.9564C73.3153 63.9564 73.8062 64.0414 74.2559 64.2114C74.7056 64.3814 75.0922 64.631 75.4158 64.96C75.7394 65.2836 75.9916 65.6839 76.1726 66.1611C76.3591 66.6327 76.4523 67.1729 76.4523 67.7817C76.4523 68.0888 76.4194 68.2972 76.3536 68.4069C76.2878 68.5111 76.1616 68.5632 75.9752 68.5632H70.7514ZM83.785 65.7333C83.7302 65.821 83.6726 65.8841 83.6122 65.9225C83.5519 65.9554 83.4751 65.9719 83.3819 65.9719C83.2832 65.9719 83.1762 65.9444 83.0611 65.8896C82.9514 65.8348 82.8225 65.7744 82.6744 65.7086C82.5264 65.6373 82.3563 65.5743 82.1644 65.5194C81.9779 65.4646 81.7558 65.4372 81.4981 65.4372C81.0977 65.4372 80.7824 65.5222 80.552 65.6922C80.3272 65.8622 80.2147 66.0843 80.2147 66.3585C80.2147 66.5395 80.2723 66.6931 80.3875 66.8192C80.5081 66.9398 80.6645 67.0468 80.8564 67.14C81.0538 67.2333 81.2759 67.3183 81.5227 67.395C81.7695 67.4663 82.0191 67.5459 82.2713 67.6336C82.5291 67.7214 82.7814 67.8228 83.0282 67.938C83.275 68.0477 83.4943 68.1903 83.6863 68.3658C83.8837 68.5358 84.04 68.7414 84.1552 68.9827C84.2758 69.224 84.3362 69.5147 84.3362 69.8547C84.3362 70.2606 84.2621 70.6362 84.1141 70.9818C83.9715 71.3218 83.7576 71.6179 83.4724 71.8702C83.1872 72.117 82.8335 72.3117 82.4112 72.4543C81.9944 72.5914 81.5118 72.6599 80.9633 72.6599C80.6727 72.6599 80.3875 72.6325 80.1078 72.5777C79.8336 72.5283 79.5676 72.457 79.3098 72.3638C79.0576 72.2706 78.8217 72.1609 78.6024 72.0347C78.3885 71.9086 78.1993 71.7715 78.0347 71.6234L78.5036 70.8501C78.564 70.7569 78.6353 70.6856 78.7175 70.6362C78.7998 70.5869 78.904 70.5622 79.0301 70.5622C79.1563 70.5622 79.2742 70.5979 79.3839 70.6692C79.499 70.7404 79.6307 70.8172 79.7787 70.8995C79.9268 70.9818 80.0996 71.0585 80.297 71.1298C80.4999 71.2011 80.7549 71.2368 81.0621 71.2368C81.3034 71.2368 81.509 71.2094 81.679 71.1545C81.8545 71.0942 81.9971 71.0174 82.1068 70.9242C82.222 70.8309 82.3042 70.724 82.3536 70.6033C82.4085 70.4772 82.4359 70.3483 82.4359 70.2167C82.4359 70.0193 82.3755 69.8575 82.2549 69.7313C82.1397 69.6052 81.9834 69.4955 81.786 69.4023C81.594 69.309 81.3719 69.2268 81.1196 69.1555C80.8729 69.0787 80.6178 68.9964 80.3546 68.9087C80.0968 68.8209 79.8418 68.7195 79.5895 68.6043C79.3427 68.4837 79.1206 68.3328 78.9232 68.1519C78.7312 67.9709 78.5749 67.7488 78.4543 67.4855C78.3391 67.2223 78.2815 66.9042 78.2815 66.5313C78.2815 66.1858 78.3501 65.8567 78.4872 65.5441C78.6243 65.2315 78.8245 64.96 79.0877 64.7297C79.3565 64.4939 79.6882 64.3074 80.0831 64.1703C80.4835 64.0277 80.9441 63.9564 81.4652 63.9564C82.0465 63.9564 82.5757 64.0524 83.0529 64.2443C83.53 64.4363 83.9276 64.6885 84.2457 65.0012L83.785 65.7333ZM88.6296 64.088V72.5283H86.5894V64.088H88.6296ZM88.9093 61.6283C88.9093 61.8038 88.8736 61.9683 88.8023 62.1219C88.731 62.2755 88.6351 62.4098 88.5144 62.525C88.3992 62.6402 88.2621 62.7334 88.1031 62.8047C87.9441 62.8705 87.774 62.9034 87.5931 62.9034C87.4176 62.9034 87.2503 62.8705 87.0912 62.8047C86.9377 62.7334 86.8033 62.6402 86.6882 62.525C86.573 62.4098 86.4798 62.2755 86.4085 62.1219C86.3426 61.9683 86.3097 61.8038 86.3097 61.6283C86.3097 61.4473 86.3426 61.2773 86.4085 61.1183C86.4798 60.9592 86.573 60.8221 86.6882 60.707C86.8033 60.5918 86.9377 60.5013 87.0912 60.4355C87.2503 60.3642 87.4176 60.3285 87.5931 60.3285C87.774 60.3285 87.9441 60.3642 88.1031 60.4355C88.2621 60.5013 88.3992 60.5918 88.5144 60.707C88.6351 60.8221 88.731 60.9592 88.8023 61.1183C88.8736 61.2773 88.9093 61.4473 88.9093 61.6283ZM94.4441 68.1025C94.6964 68.1025 94.9158 68.0696 95.1022 68.0038C95.2887 67.9325 95.4423 67.8365 95.5629 67.7159C95.6891 67.5952 95.7823 67.4499 95.8426 67.2799C95.9084 67.1099 95.9413 66.9234 95.9413 66.7205C95.9413 66.3037 95.8152 65.9746 95.5629 65.7333C95.3161 65.4865 94.9432 65.3631 94.4441 65.3631C93.9451 65.3631 93.5694 65.4865 93.3171 65.7333C93.0703 65.9746 92.9469 66.3037 92.9469 66.7205C92.9469 66.9179 92.9771 67.1016 93.0374 67.2716C93.1032 67.4417 93.1965 67.5897 93.3171 67.7159C93.4432 67.8365 93.5995 67.9325 93.786 68.0038C93.978 68.0696 94.1973 68.1025 94.4441 68.1025ZM96.7393 72.9067C96.7393 72.7422 96.6899 72.6078 96.5912 72.5036C96.4925 72.3994 96.3581 72.3199 96.1881 72.2651C96.0181 72.2047 95.8179 72.1609 95.5876 72.1335C95.3627 72.106 95.1214 72.0868 94.8637 72.0759C94.6114 72.0594 94.3482 72.0457 94.0739 72.0347C93.8052 72.0238 93.542 72.0018 93.2842 71.9689C93.0593 72.0951 92.8756 72.2431 92.733 72.4132C92.5959 72.5832 92.5274 72.7806 92.5274 73.0055C92.5274 73.1535 92.563 73.2906 92.6343 73.4168C92.7111 73.5484 92.829 73.6608 92.9881 73.7541C93.1526 73.8473 93.3637 73.9186 93.6215 73.9679C93.8792 74.0228 94.1946 74.0502 94.5675 74.0502C94.9459 74.0502 95.2723 74.02 95.5465 73.9597C95.8207 73.9049 96.0455 73.8254 96.221 73.7212C96.402 73.6224 96.5336 73.5018 96.6159 73.3592C96.6982 73.2221 96.7393 73.0713 96.7393 72.9067ZM98.763 64.3759V65.1328C98.763 65.3741 98.6177 65.5222 98.327 65.577L97.5702 65.7168C97.6853 66.0075 97.7429 66.3256 97.7429 66.6711C97.7429 67.0879 97.6579 67.4663 97.4879 67.8064C97.3234 68.1409 97.093 68.4261 96.7969 68.6619C96.5007 68.8977 96.1497 69.0815 95.7439 69.2131C95.3435 69.3392 94.9103 69.4023 94.4441 69.4023C94.2796 69.4023 94.1206 69.3941 93.967 69.3776C93.8134 69.3612 93.6626 69.3392 93.5145 69.3118C93.2513 69.4708 93.1197 69.6491 93.1197 69.8465C93.1197 70.0165 93.1965 70.1427 93.35 70.2249C93.5091 70.3017 93.7175 70.3565 93.9752 70.3895C94.233 70.4224 94.5264 70.4443 94.8554 70.4553C95.1845 70.4607 95.5218 70.4772 95.8673 70.5046C96.2128 70.532 96.5501 70.5814 96.8791 70.6527C97.2082 70.7185 97.5016 70.8255 97.7594 70.9735C98.0171 71.1216 98.2228 71.3245 98.3764 71.5823C98.5354 71.8346 98.6149 72.1609 98.6149 72.5612C98.6149 72.9342 98.5217 73.2961 98.3352 73.6471C98.1542 73.9981 97.8883 74.3107 97.5373 74.5849C97.1917 74.8591 96.764 75.0785 96.2539 75.243C95.7494 75.413 95.1735 75.4981 94.5264 75.4981C93.8902 75.4981 93.3363 75.435 92.8647 75.3088C92.393 75.1882 92.0009 75.0237 91.6883 74.8153C91.3757 74.6123 91.1426 74.3765 90.989 74.1078C90.8355 73.8391 90.7587 73.5594 90.7587 73.2687C90.7587 72.8738 90.8766 72.5448 91.1124 72.2815C91.3537 72.0128 91.6828 71.7989 92.0996 71.6399C91.8747 71.5247 91.6965 71.3711 91.5649 71.1792C91.4333 70.9872 91.3674 70.735 91.3674 70.4224C91.3674 70.2962 91.3894 70.1673 91.4333 70.0357C91.4826 69.8986 91.5512 69.7642 91.6389 69.6326C91.7322 69.501 91.8473 69.3776 91.9844 69.2624C92.1215 69.1418 92.2833 69.0348 92.4698 68.9416C92.042 68.7113 91.7047 68.4041 91.4579 68.0202C91.2166 67.6363 91.096 67.1866 91.096 66.6711C91.096 66.2543 91.1782 65.8786 91.3428 65.5441C91.5128 65.2041 91.7459 64.9161 92.042 64.6803C92.3436 64.439 92.6974 64.2553 93.1032 64.1292C93.5145 64.003 93.9615 63.9399 94.4441 63.9399C94.8061 63.9399 95.1461 63.9783 95.4642 64.0551C95.7823 64.1264 96.073 64.2334 96.3362 64.3759H98.763ZM102.61 65.1245C102.78 64.9545 102.958 64.7982 103.145 64.6556C103.337 64.5076 103.537 64.3842 103.745 64.2855C103.959 64.1813 104.187 64.1017 104.428 64.0469C104.669 63.9866 104.933 63.9564 105.218 63.9564C105.678 63.9564 106.087 64.0359 106.444 64.195C106.8 64.3485 107.096 64.5679 107.332 64.8531C107.573 65.1328 107.754 65.4701 107.875 65.8649C108.001 66.2543 108.064 66.6848 108.064 67.1565V72.5283H106.032V67.1565C106.032 66.6409 105.914 66.2433 105.678 65.9636C105.443 65.6785 105.083 65.5359 104.601 65.5359C104.25 65.5359 103.921 65.6154 103.614 65.7744C103.306 65.9335 103.016 66.1501 102.742 66.4243V72.5283H100.71V64.088H101.952C102.215 64.088 102.388 64.2114 102.47 64.4582L102.61 65.1245Z" fill="#1D2947"/>
</svg>
