<svg width="122" height="100" fill="none" xmlns="http://www.w3.org/2000/svg"><path opacity=".05" d="M96.813 100c-10.232 0-17.972-4.233-23.22-12.698-4.46-7.143-6.69-15.873-6.69-26.19 0-13.228 3.28-25.133 9.839-35.715C83.563 14.815 93.796 6.349 107.439 0l3.542 7.143c-8.134 3.439-15.218 8.862-21.252 16.27-5.772 7.407-8.658 14.947-8.658 22.619 0 3.174.394 5.952 1.18 8.333 4.198-3.44 9.052-5.159 14.562-5.159 7.084 0 12.987 2.381 17.71 7.143C119.508 60.847 122 66.931 122 74.603c0 7.143-2.492 13.228-7.477 18.254C109.8 97.62 103.897 100 96.813 100zm-66.903 0c-10.233 0-17.972-4.233-23.22-12.698C2.23 80.159 0 71.429 0 61.112c0-13.228 3.28-25.133 9.839-35.715C16.66 14.815 26.892 6.349 40.536 0l3.541 7.143c-8.133 3.439-15.217 8.862-21.251 16.27-5.772 7.407-8.658 14.947-8.658 22.619 0 3.174.393 5.952 1.18 8.333 4.198-3.44 9.052-5.159 14.562-5.159 7.083 0 12.987 2.381 17.71 7.143 4.984 4.498 7.477 10.582 7.477 18.254 0 7.143-2.493 13.228-7.478 18.254C42.897 97.62 36.993 100 29.91 100z" fill="#1D2947"/></svg>